<?xml version="1.0" standalone="no"?>
<!DOCTYPE svg PUBLIC "-//W3C//DTD SVG 20010904//EN"
 "http://www.w3.org/TR/2001/REC-SVG-20010904/DTD/svg10.dtd">
<svg version="1.0" xmlns="http://www.w3.org/2000/svg"
 width="225.000000pt" height="225.000000pt" viewBox="0 0 225.000000 225.000000"
 preserveAspectRatio="xMidYMid meet">

<g transform="translate(0.000000,225.000000) scale(0.100000,-0.100000)"
fill="#000000" stroke="none">
<path d="M405 1973 c-120 -43 -221 -134 -269 -241 -49 -106 -49 -106 -94 -116
l-42 -10 0 -61 0 -61 43 -10 c45 -10 45 -10 98 -127 35 -78 119 -161 207 -204
75 -37 78 -38 192 -38 114 0 118 1 191 37 128 63 213 170 248 314 16 64 26 84
53 106 57 49 129 49 187 0 26 -22 36 -42 51 -104 32 -127 86 -211 180 -277 88
-62 166 -84 280 -79 81 3 105 8 162 35 109 51 205 155 238 258 17 55 37 74 82
81 l38 7 0 62 0 62 -38 7 c-42 6 -65 27 -77 66 -31 108 -132 221 -242 273 -64
30 -74 32 -183 32 -109 0 -119 -2 -183 -32 -79 -38 -174 -123 -208 -189 -16
-30 -29 -43 -39 -40 -8 3 -33 12 -55 20 -51 19 -149 19 -200 0 -22 -8 -47 -17
-55 -20 -10 -3 -23 10 -38 39 -36 69 -118 144 -201 185 -68 34 -82 37 -175 40
-77 2 -113 -2 -151 -15z m263 -143 c68 -29 144 -112 167 -181 25 -75 17 -192
-17 -250 -64 -109 -158 -164 -278 -164 -130 0 -231 67 -285 187 -23 52 -27 70
-23 137 2 55 10 88 26 121 81 155 253 218 410 150z m1164 2 c111 -49 178 -148
186 -273 4 -67 1 -83 -23 -138 -32 -70 -93 -132 -163 -164 -70 -32 -179 -30
-252 4 -101 48 -161 128 -179 236 -16 104 9 184 83 261 92 97 230 127 348 74z"/>
<path d="M743 985 c-79 -22 -115 -43 -259 -153 -73 -55 -152 -107 -178 -117
-63 -24 -142 -15 -218 24 -32 17 -61 31 -64 31 -18 0 10 -95 52 -180 38 -76
62 -110 123 -170 118 -117 227 -160 407 -160 186 0 324 53 449 171 l70 67 70
-67 c126 -119 263 -171 449 -171 179 0 296 46 412 165 55 55 83 95 119 167 48
96 69 178 45 178 -6 0 -25 -10 -42 -21 -38 -27 -110 -49 -162 -49 -60 0 -133
39 -254 133 -59 46 -127 96 -152 110 -66 38 -162 60 -225 52 -66 -8 -161 -52
-213 -99 -22 -20 -42 -36 -46 -36 -3 0 -30 19 -59 43 -100 82 -219 112 -324
82z"/>
</g>
</svg>
